<svg data-v-423bf9ae="" xmlns="http://www.w3.org/2000/svg" viewBox="0 0 497.8285871233259 60" class="font"><!----><!----><!----><g data-v-423bf9ae="" id="68ef4d07-878f-4119-8df9-866c4a59210e" fill="black" transform="matrix(5.714285714285714,0,0,5.714285714285714,-3.8285680413246155,-18.057143109185354)"><path d="M8.26 11.79L8.26 8.60L9.60 8.60L9.60 12.42Q8.88 13.02 7.91 13.34Q6.94 13.66 5.89 13.66L5.89 13.66Q4.41 13.66 3.22 13.01Q2.03 12.36 1.35 11.22Q0.67 10.08 0.67 8.65L0.67 8.65Q0.67 7.22 1.35 6.08Q2.03 4.93 3.23 4.28Q4.42 3.64 5.92 3.64L5.92 3.64Q7.10 3.64 8.06 4.02Q9.02 4.41 9.69 5.15L9.69 5.15L8.82 6.02Q7.64 4.89 5.98 4.89L5.98 4.89Q4.86 4.89 3.97 5.37Q3.08 5.85 2.58 6.71Q2.07 7.57 2.07 8.65L2.07 8.65Q2.07 9.72 2.58 10.58Q3.08 11.44 3.97 11.93Q4.86 12.42 5.96 12.42L5.96 12.42Q7.28 12.42 8.26 11.79L8.26 11.79ZM15.26 13.64Q14.15 13.64 13.27 13.15Q12.39 12.66 11.89 11.79Q11.40 10.93 11.40 9.84L11.40 9.84Q11.40 8.75 11.89 7.89Q12.39 7.03 13.27 6.54Q14.15 6.06 15.26 6.06L15.26 6.06Q16.37 6.06 17.24 6.54Q18.12 7.03 18.61 7.89Q19.11 8.75 19.11 9.84L19.11 9.84Q19.11 10.93 18.61 11.79Q18.12 12.66 17.24 13.15Q16.37 13.64 15.26 13.64L15.26 13.64ZM15.26 12.46Q15.97 12.46 16.54 12.13Q17.11 11.80 17.43 11.21Q17.75 10.61 17.75 9.84L17.75 9.84Q17.75 9.07 17.43 8.48Q17.11 7.88 16.54 7.56Q15.97 7.24 15.26 7.24L15.26 7.24Q14.55 7.24 13.98 7.56Q13.41 7.88 13.08 8.48Q12.75 9.07 12.75 9.84L12.75 9.84Q12.75 10.61 13.08 11.21Q13.41 11.80 13.98 12.13Q14.55 12.46 15.26 12.46L15.26 12.46ZM23.60 6.06Q25.14 6.06 25.96 6.82Q26.78 7.57 26.78 9.07L26.78 9.07L26.78 13.55L25.51 13.55L25.51 12.57Q25.17 13.09 24.55 13.36Q23.93 13.64 23.07 13.64L23.07 13.64Q21.83 13.64 21.08 13.03Q20.33 12.43 20.33 11.45L20.33 11.45Q20.33 10.47 21.04 9.88Q21.76 9.28 23.31 9.28L23.31 9.28L25.44 9.28L25.44 9.02Q25.44 8.15 24.93 7.69Q24.43 7.22 23.45 7.22L23.45 7.22Q22.79 7.22 22.16 7.44Q21.53 7.66 21.10 8.02L21.10 8.02L20.54 7.01Q21.11 6.55 21.91 6.31Q22.71 6.06 23.60 6.06L23.60 6.06ZM23.30 12.60Q24.07 12.60 24.63 12.26Q25.19 11.91 25.44 11.28L25.44 11.28L25.44 10.25L23.37 10.25Q21.66 10.25 21.66 11.40L21.66 11.40Q21.66 11.96 22.09 12.28Q22.53 12.60 23.30 12.60L23.30 12.60ZM29.27 13.55L29.27 3.16L30.62 3.16L30.62 13.55L29.27 13.55ZM39.09 13.55L39.09 4.97L35.73 4.97L35.73 3.75L43.83 3.75L43.83 4.97L40.47 4.97L40.47 13.55L39.09 13.55ZM46.27 7.38Q46.62 6.73 47.31 6.40Q47.99 6.06 48.97 6.06L48.97 6.06L48.97 7.36Q48.86 7.35 48.66 7.35L48.66 7.35Q47.57 7.35 46.95 8.00Q46.33 8.65 46.33 9.86L46.33 9.86L46.33 13.55L44.98 13.55L44.98 6.13L46.27 6.13L46.27 7.38ZM53.31 6.06Q54.85 6.06 55.67 6.82Q56.49 7.57 56.49 9.07L56.49 9.07L56.49 13.55L55.22 13.55L55.22 12.57Q54.88 13.09 54.26 13.36Q53.63 13.64 52.78 13.64L52.78 13.64Q51.53 13.64 50.78 13.03Q50.04 12.43 50.04 11.45L50.04 11.45Q50.04 10.47 50.75 9.88Q51.46 9.28 53.02 9.28L53.02 9.28L55.15 9.28L55.15 9.02Q55.15 8.15 54.64 7.69Q54.14 7.22 53.16 7.22L53.16 7.22Q52.50 7.22 51.87 7.44Q51.24 7.66 50.81 8.02L50.81 8.02L50.25 7.01Q50.82 6.55 51.62 6.31Q52.42 6.06 53.31 6.06L53.31 6.06ZM53.00 12.60Q53.77 12.60 54.33 12.26Q54.89 11.91 55.15 11.28L55.15 11.28L55.15 10.25L53.07 10.25Q51.37 10.25 51.37 11.40L51.37 11.40Q51.37 11.96 51.80 12.28Q52.23 12.60 53.00 12.60L53.00 12.60ZM62.26 13.64Q61.12 13.64 60.23 13.15Q59.35 12.66 58.84 11.79Q58.34 10.93 58.34 9.84L58.34 9.84Q58.34 8.75 58.84 7.89Q59.35 7.03 60.23 6.54Q61.12 6.06 62.26 6.06L62.26 6.06Q63.27 6.06 64.06 6.47Q64.85 6.87 65.28 7.64L65.28 7.64L64.26 8.30Q63.91 7.77 63.39 7.50Q62.87 7.24 62.24 7.24L62.24 7.24Q61.52 7.24 60.94 7.56Q60.35 7.88 60.02 8.48Q59.70 9.07 59.70 9.84L59.70 9.84Q59.70 10.63 60.02 11.22Q60.35 11.82 60.94 12.14Q61.52 12.46 62.24 12.46L62.24 12.46Q62.87 12.46 63.39 12.19Q63.91 11.93 64.26 11.40L64.26 11.40L65.28 12.04Q64.85 12.81 64.06 13.22Q63.27 13.64 62.26 13.64L62.26 13.64ZM72.59 13.55L69.80 10.09L68.26 11.52L68.26 13.55L66.92 13.55L66.92 3.16L68.26 3.16L68.26 9.83L72.31 6.13L73.93 6.13L70.81 9.20L74.24 13.55L72.59 13.55ZM81.94 9.88Q81.94 10.04 81.91 10.29L81.91 10.29L75.89 10.29Q76.02 11.27 76.75 11.87Q77.49 12.46 78.58 12.46L78.58 12.46Q79.91 12.46 80.72 11.56L80.72 11.56L81.47 12.43Q80.96 13.02 80.21 13.33Q79.46 13.64 78.54 13.64L78.54 13.64Q77.36 13.64 76.45 13.15Q75.54 12.67 75.05 11.80Q74.55 10.93 74.55 9.84L74.55 9.84Q74.55 8.76 75.03 7.90Q75.52 7.03 76.36 6.54Q77.21 6.06 78.27 6.06L78.27 6.06Q79.34 6.06 80.17 6.54Q81.00 7.03 81.47 7.90Q81.94 8.76 81.94 9.88L81.94 9.88ZM78.27 7.20Q77.31 7.20 76.66 7.78Q76.01 8.37 75.89 9.32L75.89 9.32L80.65 9.32Q80.54 8.39 79.89 7.79Q79.24 7.20 78.27 7.20L78.27 7.20ZM85.09 7.38Q85.44 6.73 86.13 6.40Q86.81 6.06 87.79 6.06L87.79 6.06L87.79 7.36Q87.68 7.35 87.49 7.35L87.49 7.35Q86.39 7.35 85.77 8.00Q85.15 8.65 85.15 9.86L85.15 9.86L85.15 13.55L83.80 13.55L83.80 6.13L85.09 6.13L85.09 7.38Z"></path></g><!----><!----></svg>